<?xml version="1.0" encoding="UTF-8" standalone="no"?>
<!-- Created with Inkscape (http://www.inkscape.org/) -->

<svg
   width="284.16mm"
   height="82.080009mm"
   viewBox="0 0 284.16001 82.08001"
   version="1.1"
   id="svg1"
   xml:space="preserve"
   inkscape:version="1.4 (86a8ad7, 2024-10-11)"
   sodipodi:docname="FilmHiveLogo.svg"
   xmlns:inkscape="http://www.inkscape.org/namespaces/inkscape"
   xmlns:sodipodi="http://sodipodi.sourceforge.net/DTD/sodipodi-0.dtd"
   xmlns="http://www.w3.org/2000/svg"
   xmlns:svg="http://www.w3.org/2000/svg"><sodipodi:namedview
     id="namedview1"
     pagecolor="#505050"
     bordercolor="#eeeeee"
     borderopacity="1"
     inkscape:showpageshadow="0"
     inkscape:pageopacity="0"
     inkscape:pagecheckerboard="0"
     inkscape:deskcolor="#505050"
     inkscape:document-units="mm"
     inkscape:zoom="0.7349537"
     inkscape:cx="717.73229"
     inkscape:cy="-104.08819"
     inkscape:window-width="1920"
     inkscape:window-height="1027"
     inkscape:window-x="1912"
     inkscape:window-y="-8"
     inkscape:window-maximized="1"
     inkscape:current-layer="layer1"><inkscape:page
       x="0"
       y="0"
       width="284.16"
       height="82.080009"
       id="page1"
       margin="0"
       bleed="0" /></sodipodi:namedview><defs
     id="defs1"><pattern
       id="EMFhbasepattern"
       patternUnits="userSpaceOnUse"
       width="6"
       height="6"
       x="0"
       y="0" /></defs><g
     inkscape:label="Warstwa 1"
     inkscape:groupmode="layer"
     id="layer1"
     transform="translate(3.2400001,-70.56)"><text
       xml:space="preserve"
       style="font-size:37.0417px;line-height:0;text-align:start;writing-mode:lr-tb;direction:ltr;text-anchor:start;fill:#ffff00;stroke-width:0.265;stroke-dasharray:none"
       x="91.299652"
       y="142.21375"
       id="text1"><tspan
         id="tspan1"
         style="font-style:normal;font-variant:normal;font-weight:bold;font-stretch:normal;font-size:37.0417px;line-height:0;font-family:Montserrat;-inkscape-font-specification:'Montserrat Bold';fill:#ffffff;fill-opacity:1;stroke-width:0.265;stroke-dasharray:none"
         x="91.299652"
         y="142.21375"
         sodipodi:role="line">FilmHive</tspan></text><text
       xml:space="preserve"
       style="font-style:normal;font-variant:normal;font-weight:normal;font-stretch:normal;font-size:25.4px;font-family:'Trebuchet MS';-inkscape-font-specification:'Trebuchet MS';text-align:start;writing-mode:lr-tb;direction:ltr;text-anchor:start;fill:#ffffff;fill-opacity:1;stroke-width:0.264999;stroke-dasharray:none"
       x="137.88"
       y="78.839996"
       id="text4"><tspan
         sodipodi:role="line"
         id="tspan4"
         style="stroke-width:0.265"
         x="137.88"
         y="78.839996" /></text><g
       id="g1"><path
         id="path1"
         style="fill:#f6bf0d;fill-opacity:1;stroke-width:0.264999"
         d="m 50.85256,108.41169 a 21.180948,20.745218 0 0 0 -21.181136,20.7455 21.180948,20.745218 0 0 0 21.181136,20.74499 21.180948,20.745218 0 0 0 21.181136,-20.74499 21.180948,20.745218 0 0 0 -21.181136,-20.7455 z m -0.111621,2.96468 a 4.9389186,4.9389186 0 0 1 4.939234,4.93871 4.9389186,4.9389186 0 0 1 -4.939234,4.93924 4.9389186,4.9389186 0 0 1 -4.938717,-4.93924 4.9389186,4.9389186 0 0 1 4.938717,-4.93871 z m -10.95437,6.31537 a 4.9389186,4.9389186 0 0 1 4.938717,4.93872 4.9389186,4.9389186 0 0 1 -4.938717,4.93923 4.9389186,4.9389186 0 0 1 -4.939233,-4.93923 4.9389186,4.9389186 0 0 1 4.939233,-4.93872 z m 21.909257,0.1602 a 4.9389186,4.9389186 0 0 1 4.939233,4.93924 4.9389186,4.9389186 0 0 1 -4.939233,4.93871 4.9389186,4.9389186 0 0 1 -4.938717,-4.93871 4.9389186,4.9389186 0 0 1 4.938717,-4.93924 z m -10.60297,7.33495 a 3.4089184,3.4089184 0 0 1 3.408577,3.4091 3.4089184,3.4089184 0 0 1 -3.408577,3.40858 3.4089184,3.4089184 0 0 1 -3.409095,-3.40858 3.4089184,3.4089184 0 0 1 3.409095,-3.4091 z m -11.405506,5.31803 a 4.9389186,4.9389186 0 0 1 4.938717,4.93923 4.9389186,4.9389186 0 0 1 -4.938717,4.93872 4.9389186,4.9389186 0 0 1 -4.939233,-4.93872 4.9389186,4.9389186 0 0 1 4.939233,-4.93923 z m 21.90719,0.061 a 4.9389186,4.9389186 0 0 1 4.938717,4.93872 4.9389186,4.9389186 0 0 1 -4.938717,4.93923 4.9389186,4.9389186 0 0 1 -4.939233,-4.93923 4.9389186,4.9389186 0 0 1 4.939233,-4.93872 z m -10.707873,6.3283 a 4.9389186,4.9389186 0 0 1 4.938716,4.93872 4.9389186,4.9389186 0 0 1 -4.938716,4.93923 4.9389186,4.9389186 0 0 1 -4.939234,-4.93923 4.9389186,4.9389186 0 0 1 4.939234,-4.93872 z" /><path
         style="fill:#f6c00c;fill-opacity:1;stroke-width:0.264999"
         d="m 26.809625,74.425146 39.793861,41.022054 -5.947461,-1.88959 -23.915354,-24.047668 4.6026,12.259478 -23.7087,-12.600352 10.931919,30.084402 -8.945976,-6.1147 10.753787,17.27033 2.559422,9.05857 L 3.2843291,95.53543 19.419967,108.41284 5.0841504,73.716398 34.388702,92.482372 Z"
         id="path2"
         sodipodi:nodetypes="ccccccccccccccc" /></g><path
       id="path8"
       style="fill:#f6bf0d;fill-opacity:1;stroke-width:0.264999"
       d="m 81.08926,132.2696 c -2.63342,-0.0108 -5.365422,1.49632 -8.622393,3.37737 -1.337005,6.81757 -6.891068,11.43673 -13.303894,14.10926 -0.423862,1.20641 -0.581877,1.95595 -0.581877,1.95595 0,0 1.654566,6e-5 9.800436,-3.43648 8.145868,-3.43654 12.218988,-3.94591 15.528248,-3.18224 3.30926,0.76368 3.43644,2.29118 4.32739,2.41846 0.89095,0.12728 0.38189,-13.36404 0.38189,-13.36404 0,0 -2.73679,-1.85862 -7.5298,-1.87828 z"
       sodipodi:nodetypes="scccssscs" /></g></svg>
